<?xml version="1.0" encoding="UTF-8"?>
<svg width="298px" height="247px" viewBox="0 0 298 247" version="1.1" xmlns="http://www.w3.org/2000/svg" xmlns:xlink="http://www.w3.org/1999/xlink">
    <!-- Generator: Sketch 54.1 (76490) - https://sketchapp.com -->
    <title>undraw_business_plan_5i9d</title>
    <desc>Created with Sketch.</desc>
    <defs>
        <linearGradient x1="49.9899601%" y1="100.007353%" x2="49.9899601%" y2="-0.00193859288%" id="linearGradient-1">
            <stop stop-color="#808080" stop-opacity="0.25" offset="0%"></stop>
            <stop stop-color="#808080" stop-opacity="0.12" offset="54%"></stop>
            <stop stop-color="#808080" stop-opacity="0.1" offset="100%"></stop>
        </linearGradient>
    </defs>
    <g id="Page-1" stroke="none" stroke-width="1" fill="none" fill-rule="evenodd">
        <g id="Desktop" transform="translate(-595.000000, -301.000000)">
            <g id="undraw_business_plan_5i9d" transform="translate(544.000000, 249.000000)">
                <ellipse id="Oval" fill="#EA1F64" fill-rule="nonzero" opacity="0.1" cx="200" cy="288.5" rx="149" ry="10.5"></ellipse>
                <polygon id="Path" fill="#535461" fill-rule="nonzero" points="169 118.478069 168.618977 119.258265 166.149252 124.293453 140.243127 177.075286 96.2834218 283.951882 90 284 133.983952 177.075286 163.956636 116 166.149252 117.075777 168.618977 118.289034"></polygon>
                <polygon id="Path" fill="#535461" fill-rule="nonzero" points="246 284 240.821275 283.951882 196.796905 177.075286 171.538044 125.67856 168.385022 119.258265 168 118.478069 168.385022 118.289034 171.538044 116.74239 173.053853 116 202.617334 177.075286"></polygon>
                <rect id="Rectangle" fill="#535461" fill-rule="nonzero" x="167" y="102" width="6" height="183"></rect>
                <path d="M168.998306,71 C165.135736,71.0038138 162.005437,74.1997092 162.001701,78.1432197 L162.001701,80.6960992 C161.945876,83.2862214 163.267401,85.7043608 165.45564,87.0161546 C167.64388,88.3279485 170.35612,88.3279485 172.54436,87.0161546 C174.732599,85.7043608 176.054124,83.2862214 175.998299,80.6960992 L175.998299,78.1432197 C175.992696,74.1991497 172.861426,71.0038102 168.998306,71 L168.998306,71 Z M174.246606,80.6857217 C174.246606,83.6469283 171.895345,86.0474605 168.994918,86.0474605 C166.09449,86.0474605 163.743229,83.6469283 163.743229,80.6857217 L163.743229,78.1328422 C163.743229,75.1716356 166.09449,72.7711034 168.994918,72.7711034 C171.895345,72.7711034 174.246606,75.1716356 174.246606,78.1328422 L174.246606,80.6857217 Z" id="Shape" fill="#535461" fill-rule="nonzero"></path>
                <polygon id="Path" fill="#000000" fill-rule="nonzero" opacity="0.1" points="203 177 197.256896 177 172.333602 125.897344 172.333602 177 166.782162 177 166.782162 124.520162 141.184618 177 135 177 164.615663 116.27416 166.782162 117.343783 166.782162 102 172.333602 102 172.333602 117.012302 173.829273 116.27416"></polygon>
                <path d="M175.998299,79 L175.998299,81.1531639 C176.054124,83.581201 174.732599,85.8480177 172.54436,87.0777219 C170.35612,88.307426 167.64388,88.307426 165.45564,87.0777219 C163.267401,85.8480177 161.945876,83.581201 162.001701,81.1531639 L162.001701,79 L163.750005,79 L163.750005,81.1531639 C163.750006,83.9290635 166.101267,86.1793747 169.001694,86.1793747 C171.902122,86.1793747 174.253383,83.9290635 174.253383,81.1531639 L174.253383,79 L175.998299,79 Z" id="Path" fill="#000000" fill-rule="nonzero" opacity="0.1"></path>
                <rect id="Rectangle" fill="#535461" fill-rule="nonzero" x="61" y="80" width="215" height="97"></rect>
                <rect id="Rectangle" fill="#FFFFFF" fill-rule="nonzero" x="66" y="83" width="207" height="88"></rect>
                <g id="Group" opacity="0.2" transform="translate(86.000000, 92.000000)" fill="#EA1F64" fill-rule="nonzero">
                    <rect id="Rectangle" x="0.273333333" y="0.171428571" width="9.46333333" height="3.69428571"></rect>
                </g>
                <g id="Group" opacity="0.2" transform="translate(86.000000, 102.000000)" fill="#EA1F64" fill-rule="nonzero">
                    <rect id="Rectangle" x="0.273333333" y="0.174285714" width="9.46333333" height="3.69428571"></rect>
                </g>
                <g id="Group" opacity="0.2" transform="translate(86.000000, 109.000000)" fill="#EA1F64" fill-rule="nonzero">
                    <rect id="Rectangle" x="0.273333333" y="0.174285714" width="9.46333333" height="3.69428571"></rect>
                </g>
                <g id="Group" opacity="0.2" transform="translate(86.000000, 118.000000)" fill="#EA1F64" fill-rule="nonzero">
                    <rect id="Rectangle" x="0.273333333" y="0.174285714" width="9.46333333" height="3.69428571"></rect>
                </g>
                <g id="Group" opacity="0.2" transform="translate(86.000000, 127.000000)" fill="#EA1F64" fill-rule="nonzero">
                    <rect id="Rectangle" x="0.273333333" y="0.177142857" width="9.46333333" height="3.69428571"></rect>
                </g>
                <g id="Group" opacity="0.2" transform="translate(86.000000, 135.000000)" fill="#EA1F64" fill-rule="nonzero">
                    <rect id="Rectangle" x="0.273333333" y="0.177142857" width="9.46333333" height="3.69428571"></rect>
                </g>
                <g id="Group" opacity="0.2" transform="translate(86.000000, 145.000000)" fill="#EA1F64" fill-rule="nonzero">
                    <rect id="Rectangle" x="0.273333333" y="0.177142857" width="9.46333333" height="3.69428571"></rect>
                </g>
                <g id="Group" opacity="0.2" transform="translate(86.000000, 153.000000)" fill="#EA1F64" fill-rule="nonzero">
                    <rect id="Rectangle" x="0.273333333" y="0.177142857" width="9.46333333" height="3.69428571"></rect>
                </g>
                <g id="Group" opacity="0.2" transform="translate(105.000000, 156.000000)" fill="#EA1F64" fill-rule="nonzero">
                    <rect id="Rectangle" x="0.0837931034" y="0.16" width="8.81068966" height="3.69428571"></rect>
                </g>
                <g id="Group" opacity="0.2" transform="translate(121.000000, 156.000000)" fill="#EA1F64" fill-rule="nonzero">
                    <rect id="Rectangle" x="0.0868965517" y="0.16" width="8.81068966" height="3.69428571"></rect>
                </g>
                <g id="Group" opacity="0.2" transform="translate(139.000000, 156.000000)" fill="#EA1F64" fill-rule="nonzero">
                    <rect id="Rectangle" x="0.0868965517" y="0.16" width="8.81068966" height="3.69428571"></rect>
                </g>
                <g id="Group" opacity="0.2" transform="translate(156.000000, 156.000000)" fill="#EA1F64" fill-rule="nonzero">
                    <rect id="Rectangle" x="0.09" y="0.16" width="8.81068966" height="3.69428571"></rect>
                </g>
                <g id="Group" opacity="0.2" transform="translate(174.000000, 156.000000)" fill="#EA1F64" fill-rule="nonzero">
                    <rect id="Rectangle" x="0.09" y="0.16" width="8.81068966" height="3.69428571"></rect>
                </g>
                <g id="Group" opacity="0.2" transform="translate(192.000000, 156.000000)" fill="#EA1F64" fill-rule="nonzero">
                    <rect id="Rectangle" x="0.0931034483" y="0.16" width="8.81068966" height="3.69428571"></rect>
                </g>
                <g id="Group" opacity="0.2" transform="translate(208.000000, 156.000000)" fill="#EA1F64" fill-rule="nonzero">
                    <rect id="Rectangle" x="0.0931034483" y="0.16" width="8.81068966" height="3.69428571"></rect>
                </g>
                <g id="Group" opacity="0.2" transform="translate(225.000000, 156.000000)" fill="#EA1F64" fill-rule="nonzero">
                    <rect id="Rectangle" x="0.0962068966" y="0.16" width="8.81068966" height="3.69428571"></rect>
                </g>
                <g id="Group" opacity="0.2" transform="translate(243.000000, 156.000000)" fill="#EA1F64" fill-rule="nonzero">
                    <rect id="Rectangle" x="0.0962068966" y="0.16" width="8.81068966" height="3.69428571"></rect>
                </g>
                <rect id="Rectangle" fill="#EA1F64" fill-rule="nonzero" x="105" y="125" width="9" height="28"></rect>
                <rect id="Rectangle" fill="#EA1F64" fill-rule="nonzero" x="121" y="112" width="9" height="41"></rect>
                <rect id="Rectangle" fill="#EA1F64" fill-rule="nonzero" x="139" y="102" width="9" height="51"></rect>
                <rect id="Rectangle" fill="#EA1F64" fill-rule="nonzero" x="156" y="107" width="9" height="46"></rect>
                <rect id="Rectangle" fill="#EA1F64" fill-rule="nonzero" x="174" y="96" width="9" height="56"></rect>
                <g id="Group" opacity="0.2" transform="translate(192.000000, 118.000000)" fill="#EA1F64" fill-rule="nonzero">
                    <rect id="Rectangle" x="0.0931034483" y="0.217425743" width="8.81068966" height="35.6471287"></rect>
                </g>
                <g id="Group" opacity="0.2" transform="translate(208.000000, 118.000000)" fill="#EA1F64" fill-rule="nonzero">
                    <rect id="Rectangle" x="0.0931034483" y="0.217425743" width="8.81068966" height="35.6471287"></rect>
                </g>
                <g id="Group" opacity="0.2" transform="translate(225.000000, 118.000000)" fill="#EA1F64" fill-rule="nonzero">
                    <rect id="Rectangle" x="0.0962068966" y="0.217425743" width="8.81068966" height="35.6471287"></rect>
                </g>
                <g id="Group" opacity="0.2" transform="translate(243.000000, 118.000000)" fill="#EA1F64" fill-rule="nonzero">
                    <rect id="Rectangle" x="0.0962068966" y="0.217425743" width="8.81068966" height="35.6471287"></rect>
                </g>
                <polygon id="Path" fill="#535461" fill-rule="nonzero" points="241.205735 118 157 123.315736 157 125 243 121.5"></polygon>
                <path d="M340.593039,151.677178 C340.593039,151.677178 344.965449,144.468693 343.803598,133.159779 C342.641747,121.850864 338.437772,103.547101 338.437772,103.547101 C338.437772,103.547101 340.263046,93.2925828 330.363251,91.8522641 C330.363251,91.8522641 324.210253,90.7048331 319.810344,87.9310135 C318.174128,86.897292 316.781969,85.6464888 316.029172,84.1407011 C316.029172,84.1407011 315.970736,84.3095423 315.857301,84.6196587 C315.759981,84.4646087 315.670495,84.3047546 315.589181,84.1407011 C315.589181,84.1407011 315.565119,84.2027244 315.527308,84.312988 L313.846405,81.6873352 C313.846405,81.6873352 313.616097,81.9319826 313.227668,82.335134 C312.551633,81.3623251 311.975781,80.3232854 311.508953,79.2339693 C311.926901,79.1327916 312.33702,79.0015126 312.736115,78.8411551 C313.117712,78.7146191 313.46161,78.4942772 313.736407,78.2002477 C313.97729,77.8649311 314.13303,77.4758238 314.190148,77.0665997 C314.458096,75.756899 314.53452,74.4150863 314.417018,73.0833259 C314.324208,72.0496043 314.114524,71.0158827 314.18671,69.9649324 C314.262334,68.8450674 314.657638,67.7631054 314.712637,66.6397946 C314.808885,64.6619407 313.829218,62.7805674 312.619243,61.2127563 C311.897383,60.2789612 311.086149,59.410635 310.460537,58.4113708 C309.917424,57.5430447 309.522119,56.5851294 308.937756,55.7409234 C307.562785,53.7768524 305.27002,52.6190842 302.918818,52.2090413 C300.567617,51.7989984 298.147667,52.0539831 295.793028,52.4433516 C293.730571,52.7879254 291.668113,53.2875575 289.605656,53.4081584 C287.804443,53.5115305 286.336661,52.9016348 284.686695,54.0973061 C283.581054,54.9144375 282.881725,56.1707452 282.76861,57.5430447 C282.741801,57.7739548 282.759302,58.0078741 282.820171,58.2321924 C282.917523,58.4646098 283.032438,58.6892358 283.163914,58.9041115 C283.896087,60.3513217 282.78236,62.0707452 282.926732,63.6867967 C283.107944,65.1580743 284.275182,66.3110114 285.745423,66.4709535 C285.680112,66.608783 285.607926,66.7431668 285.546052,66.8844421 C283.694087,71.0785386 283.962544,75.9087684 286.26781,79.8706934 C288.573076,83.8326184 292.635067,86.4448767 297.188624,86.8938462 L297.827986,87.3865868 C299.271706,88.5064519 300.894173,89.8468442 302.458203,91.3043917 L302.427266,91.3285118 L302.172896,91.1837908 C301.696732,91.5612828 301.196055,91.9066184 300.674177,92.2175124 C299.22702,93.1065129 296.893005,94.2608354 294.26681,94.3917735 C294.26681,94.3917735 289.564407,96.8899339 287.945378,105.128695 C285.621676,107.216813 280.647716,110.986451 274.075352,111.968486 C264.83898,113.346782 253.450778,113.798173 253.450778,113.798173 C253.450778,113.798173 253.357968,113.963569 253.227345,114.266794 L252.175492,114.073832 C252.175492,114.073832 252.175492,114.201325 252.130806,114.418406 L251.718314,114.232336 C248.456194,112.802355 241.938829,110.717683 241.113846,116.461729 C240.006994,124.166401 247.335592,123.280846 247.335592,123.280846 C248.784769,122.728925 250.269731,122.276488 251.780188,121.926671 L252.189242,121.847419 C252.25874,122.048358 252.355929,122.238567 252.477986,122.41252 L253.47484,122.41252 C253.821118,123.130735 254.239187,123.811884 254.722627,124.445506 L277.952772,123.935536 C277.952772,123.935536 281.923002,123.06721 285.587302,123.618528 C283.988897,135.595916 282.101749,148.731071 282.101749,148.731071 C282.101749,148.731071 278.148705,169.532995 280.915836,171.707256 C282.521876,171.170116 284.158772,170.730561 285.817609,170.390984 C285.842787,171.676371 285.978495,172.957188 286.223226,174.2192 L287.993502,185.834785 C287.993502,185.834785 288.680988,197.701909 290.980628,204.786347 L293.008711,214.468873 L294.706801,221.787622 L295.662406,234.209509 C296.974695,239.471741 297.923385,244.818429 298.501722,250.211519 C299.398891,258.557098 304.269728,272.043719 304.919402,273.818275 C303.255686,276.178606 299.838882,280.182554 295.552408,280.596042 C289.433785,281.18871 289.285975,284.885987 293.562137,286.216042 C297.838298,287.546097 306.837487,286.216042 306.837487,286.216042 L319.528475,283.070083 C319.14692,285.416631 318.947549,287.270438 319.225981,287.470291 C320.037214,288.062958 332.353522,291.260603 332.796951,286.140236 C332.831325,285.717559 332.862262,285.307516 332.889761,284.910107 C333.07309,281.629991 332.635721,278.344717 331.600725,275.227582 C331.50104,274.920911 331.411667,274.610794 331.332606,274.300678 C331.515285,274.095964 331.683007,273.878319 331.834471,273.649433 C331.834471,273.649433 332.721327,259.82513 333.384751,254.870158 C333.436312,254.473898 333.470687,253.991495 333.487874,253.447068 C333.793805,247.506615 331.631662,231.88019 331.631662,231.88019 C331.631662,231.88019 328.96078,221.715261 329.060465,217.042839 C329.075771,216.654582 329.141641,216.269996 329.256399,215.898854 C329.256399,215.898854 329.256399,215.805819 329.222025,215.650761 C329.222025,215.585292 329.252961,215.516377 329.273586,215.454354 C329.273586,215.454354 327.919239,206.15086 328.108298,200.617003 C328.134733,199.79149 328.249981,198.971247 328.45204,198.170529 C328.666972,197.11939 328.776369,196.049319 328.778596,194.976329 C328.950468,191.186017 328.751097,184.639114 328.476102,178.498807 C328.507039,178.395435 328.537976,178.292063 328.562038,178.171462 C328.617494,177.682494 328.55986,177.187291 328.393604,176.724252 C328.37298,176.327992 328.355792,175.935178 328.335168,175.545809 C328.448603,175.156441 328.541414,174.742952 328.623912,174.315681 L328.802658,174.315681 L328.802658,174.339801 C328.802658,174.339801 340.359294,173.785037 343.016427,170.680426 C343.016427,170.680426 340.331795,162.317619 338.843388,155.519176 L340.593039,151.677178 Z M290.791569,125.665297 L290.609385,125.599828 C290.901567,124.566107 291.248747,123.363544 291.640614,122.102403 C291.307183,123.466916 291.018439,124.707382 290.791569,125.665297 Z M302.520077,91.3836436 L302.571638,91.431884 L302.516639,91.4008723 L302.520077,91.3836436 Z M316.957278,270.74123 C316.335103,268.594535 313.863592,259.842359 313.942653,255.669569 C313.959915,255.306878 314.023452,254.947898 314.131711,254.60139 C314.360899,253.845155 314.476744,253.058986 314.475454,252.268625 C314.722949,247.913212 313.059234,240.108614 313.059234,240.108614 C313.059234,240.108614 309.336498,229.581882 309.621805,221.22252 C309.621805,221.01233 309.645867,220.80214 309.659616,220.59195 C309.72149,219.79943 309.769614,218.941441 309.803988,218.035212 L309.803988,218.017983 C309.944923,214.789326 309.913986,210.902533 309.821176,207.277616 L309.800551,207.143232 C309.673366,202.343319 309.436184,198.022362 309.336498,196.313276 C309.680241,198.783871 311.880196,214.162202 312.828926,216.677591 C312.828926,216.677591 313.347978,223.772367 315.706054,229.771398 L318.291,245.366811 C318.291,245.366811 318.954424,263.925559 320.057839,269.173419 C320.552829,271.50963 320.972195,273.084332 321.285001,274.111162 C320.838135,276.202726 320.116275,279.707042 319.631598,282.608354 C319.346291,280.716643 318.342562,273.508158 316.960715,270.74123 L316.957278,270.74123 Z" id="Shape" fill="url(#linearGradient-1)" fill-rule="nonzero"></path>
                <path d="M306.381332,272.497856 C306.381332,272.497856 302.03679,280.295219 295.926736,280.87788 C289.816683,281.46054 289.671288,285.103879 293.939671,286.416578 C298.208054,287.729277 307.19139,286.416578 307.19139,286.416578 L320,283.283923 C320,283.283923 318.452581,270.746448 316.392818,270.091812 C314.333055,269.437177 306.381332,272.497856 306.381332,272.497856 Z" id="Path" fill="#4C4C78" fill-rule="nonzero"></path>
                <path d="M321.590201,271.884445 C321.590201,271.884445 318.305748,285.96495 319.13388,286.536866 C319.962011,287.108783 332.41556,290.162346 332.864716,285.255908 C332.899806,284.843415 332.931387,284.44876 332.95946,284.071942 C333.143356,280.91646 332.700479,277.756257 331.6541,274.757403 C331.303197,273.754041 331.057565,272.680445 331.1488,271.884445 C331.355833,269.894444 321.590201,271.884445 321.590201,271.884445 Z" id="Path" fill="#4C4C78" fill-rule="nonzero"></path>
                <path d="M317,87.7815077 C317,87.7815077 306.86372,112.321371 308.667844,104.439523 C309.861178,99.2197563 302.146872,92.2844264 296.812173,88.2095286 C294.097161,86.1216219 292,84.7958012 292,84.7958012 C292,84.7958012 311.029798,62.9284588 309.681118,72.3623171 C309.311206,74.946078 309.670331,77.5803448 310.719107,79.9762167 C312.819799,84.8967167 317,87.7815077 317,87.7815077 Z" id="Path" fill="#FFB9B9" fill-rule="nonzero"></path>
                <path d="M254,123.567595 C253.475138,123.440321 252.618784,123.521907 251.731353,123.701396 C250.228209,124.029472 248.750363,124.453606 247.308009,124.970872 C247.308009,124.970872 240.011736,125.803048 241.113255,118.571277 C241.931626,113.180082 248.419888,115.138143 251.669198,116.476151 C252.774171,116.936296 253.506215,117.321381 253.506215,117.321381 L254,123.567595 Z" id="Path" fill="#FFB9B9" fill-rule="nonzero"></path>
                <path d="M254,122.851852 C253.410511,122.71093 252.448712,122.801265 251.45201,123 C250.56002,120.904246 251.238708,115.935863 251.382202,115 C252.623232,115.509485 253.445415,115.935863 253.445415,115.935863 L254,122.851852 Z" id="Path" fill="#000000" fill-rule="nonzero" opacity="0.1"></path>
                <path d="M254.382927,114.375 L252.375626,114 C252.375626,114 251.348381,121.125 252.691422,123 L255,123 L254.382927,114.375 Z" id="Path" fill="#CBCDDA" fill-rule="nonzero"></path>
                <path d="M291.508636,128.306316 C291.508636,128.306316 285.844805,124.831057 285.167827,129.217239 C284.490848,133.603421 283.599381,141.097056 283.599381,141.097056 L282.030936,150.635971 L280,169.748175 L280.284867,173 C280.284867,173 286.31735,170.916907 287.731632,171.649083 C289.145914,172.38126 290.298788,163.608895 290.298788,163.608895 L292.644754,154.544348 L293,135.322145 L291.508636,128.306316 Z" id="Path" fill="#4C4C78" fill-rule="nonzero"></path>
                <path d="M291.508636,128.306316 C291.508636,128.306316 285.844805,124.831057 285.167827,129.217239 C284.490848,133.603421 283.599381,141.097056 283.599381,141.097056 L282.030936,150.635971 L280,169.748175 L280.284867,173 C280.284867,173 286.31735,170.916907 287.731632,171.649083 C289.145914,172.38126 290.298788,163.608895 290.298788,163.608895 L292.644754,154.544348 L293,135.322145 L291.508636,128.306316 Z" id="Path" fill="#000000" fill-rule="nonzero" opacity="0.1"></path>
                <path d="M289,105 C289,105 282.903875,111.963621 273.64847,113.364795 C264.393065,114.765968 252.972389,115.220117 252.972389,115.220117 C252.972389,115.220117 250.091153,120.441073 254.247918,126 L277.534141,125.478961 C277.534141,125.478961 282.688391,124.345348 286.681804,125.478961 L289,105 Z" id="Path" fill="#4C4C78" fill-rule="nonzero"></path>
                <path d="M289,105 C289,105 282.903875,111.963621 273.64847,113.364795 C264.393065,114.765968 252.972389,115.220117 252.972389,115.220117 C252.972389,115.220117 250.091153,120.441073 254.247918,126 L277.534141,125.478961 C277.534141,125.478961 282.688391,124.345348 286.681804,125.478961 L289,105 Z" id="Path" fill="#000000" fill-rule="nonzero" opacity="0.05"></path>
                <g id="Group"></g>
                <path d="M309.968261,79.6423837 C307.756774,84.4535115 303.912032,88 298.335974,88 C298.089126,88 297.849041,88 297.608956,87.9828174 C295.008598,85.9209055 293,84.6115914 293,84.6115914 C293,84.6115914 311.226171,63.0165005 309.934446,72.3329059 C309.535431,75.1852174 309.078932,77.5014318 309.968261,79.6423837 Z" id="Path" fill="#000000" fill-rule="nonzero" opacity="0.1"></path>
                <path d="M312.999938,74.5106005 C312.994092,82.5178005 306.49893,89.004544 298.491738,88.9999976 C290.484546,88.9954512 283.996755,82.501336 284.000001,74.4941347 C284.003248,66.4869333 290.496303,59.9980811 298.503496,60.0000277 C302.352942,59.9925001 306.046686,61.5193234 308.767336,64.2426252 C311.487986,66.965927 313.011212,70.6611595 312.999938,74.5106005 Z" id="Path" fill="#FFB9B9" fill-rule="nonzero"></path>
                <path d="M320,160.052207 C320,160.052207 289.314453,162.866323 288.18936,158.796465 C287.064268,154.726607 291.320197,143.706685 291.320197,143.706685 L289.933923,128.321231 L289.883696,127.733363 C289.883696,127.733363 293.72776,111.088688 293.587124,109.759897 C293.453184,108.563289 299.77513,94.5970678 301.074344,91.7412103 C301.228374,91.4107518 301.308738,91.2298692 301.308738,91.2298692 L301.553178,91.3759667 L301.660329,91.4420584 L303.1638,92.3534283 L309.10067,90.8924537 L316.25639,87 L316.926088,129.580452 L320,160.052207 Z" id="Path" fill="#CBCDDA" fill-rule="nonzero"></path>
                <path d="M305.656,93.0729256 C305.656,93.0729256 303.506286,92.4830302 302.666286,94.658703 C302.337516,95.5939632 301.948098,96.5062364 301.500571,97.3895715 L300.664,102.441852 L299.131429,110.422788 L298,145.72976 L298.510857,152 L301.318857,146.94772 L301.829714,113.944811 L301.829714,109.839833 C301.994131,106.29071 302.786095,102.80019 304.168,99.5340145 L304.558857,98.6075318 L307,95.4325069 L305.656,93.0729256 Z" id="Path" fill="#000000" fill-rule="nonzero" opacity="0.1"></path>
                <path d="M303.653085,92.072917 C303.653085,92.072917 301.500762,91.483091 300.664509,93.658508 C300.335238,94.5939401 299.944809,95.50614 299.495811,96.3890552 L298.659558,101.444211 L297.12757,109.424209 L296,144.727027 L296.510663,151 L299.317593,145.930966 L299.828256,112.952756 L299.828256,108.837853 C299.995908,105.289605 300.787438,101.800082 302.165651,98.533246 L302.559787,97.6068723 L305,94.4356904 L303.653085,92.072917 Z" id="Path" fill="#4C4C78" fill-rule="nonzero"></path>
                <path d="M313.085911,83 C313.085911,83 305.632302,90.9020829 303,91.8400258 C303,91.8400258 304.316151,97.831866 305.632302,99 C305.632302,99 313.453608,91.0257677 314.838488,90.3798583 L316,87.5385441 L313.085911,83 Z" id="Path" fill="#000000" fill-rule="nonzero" opacity="0.1"></path>
                <path d="M313.085911,83 C313.085911,83 305.632302,90.9020829 303,91.8400258 C303,91.8400258 304.316151,97.831866 305.632302,99 C305.632302,99 313.453608,91.0257677 314.838488,90.3798583 L316,87.5419798 L313.085911,83 Z" id="Path" fill="#CBCDDA" fill-rule="nonzero"></path>
                <path d="M302,93 L301.925403,93.2082552 L299.568805,99.6745779 L295.354055,111.874859 C295.354055,111.874859 295.316756,111.999812 295.242159,112.221951 C294.543656,114.44334 290.790054,126.497842 290.050862,130 L290,129.413415 C290,129.413415 293.892625,112.805066 293.750212,111.479174 C293.61458,110.285178 300.016389,96.3494371 301.332015,93.4998124 C301.542244,93.3540338 301.705001,93.2290807 301.816897,93.1353659 L302,93 Z" id="Path" fill="#000000" fill-rule="nonzero" opacity="0.1"></path>
                <path d="M302,93 L299.535484,99.5645677 L295.268921,111.557528 C295.268921,111.557528 295.231163,111.680358 295.155649,111.898722 C294.40737,114.225663 290.140806,127.508335 289.797559,129.937635 C289.409689,132.60577 284.044734,147.02803 284.044734,147.02803 L280.979536,172 C278.233558,169.881187 282.132847,149.481213 282.132847,149.481213 C282.132847,149.481213 286.512682,119.227563 287.549289,109.162348 C288.585896,99.0971322 294.177394,96.1560422 294.177394,96.1560422 C296.758614,96.0263885 299.085831,94.8936253 300.517172,94.0235812 C301.034056,93.7159434 301.529458,93.3739722 302,93 Z" id="Path" fill="#4C4C78" fill-rule="nonzero"></path>
                <path d="M333.88392,254.674794 C333.217258,259.567545 332.327213,273.215747 332.327213,273.215747 C329.210309,277.813217 322.30635,275.330789 322.30635,275.330789 C322.30635,275.330789 321.566391,273.957385 320.452962,268.759051 C319.339533,263.560717 318.672871,245.249809 318.672871,245.249809 L316.072543,229.867684 C313.699089,223.951747 313.179023,216.943953 313.179023,216.943953 C312.131911,214.241781 309.615352,196.500835 309.615352,196.500835 C309.615352,196.500835 310.662464,212.415153 309.988822,220.813519 C309.31518,229.211884 313.398917,240.511565 313.398917,240.511565 C313.398917,240.511565 315.702563,251.10051 314.512346,254.386379 C313.322129,257.672248 317.482654,271.248346 317.482654,271.248346 C317.133617,275.193449 305.315211,273.586566 305.315211,273.586566 C305.315211,273.586566 299.755046,258.908311 298.781232,250.07389 C298.197657,244.750921 297.24253,239.473749 295.922616,234.279745 L294.959273,222.011814 L293.24899,214.760241 L291.210612,205.197915 C288.906965,198.190122 288.2054,186.471552 288.2054,186.471552 L286.421819,174.972727 C285.256034,169.286835 286.770856,162.612092 287.776084,159.120212 C288.212381,157.606034 288.561418,156.68242 288.561418,156.68242 C289.584097,157.39659 295.440944,158.234366 298.470589,158.914201 C300.128662,159.290121 301.833891,159.424317 303.531631,159.312488 C311.191251,158.714212 318.768662,157.347441 326.145761,155.233479 C326.644885,155.085838 326.910153,155 326.910153,155 L327.06722,156.315034 L327.4372,159.446395 L328.09688,165.005248 C328.09688,165.005248 330.100355,194.646739 328.913628,198.653645 C327.726901,202.660552 329.730375,216.164546 329.730375,216.164546 C328.616946,219.368011 332.103829,232.387881 332.103829,232.387881 C332.103829,232.387881 334.554071,249.782042 333.88392,254.674794 Z" id="Path" fill="#000000" fill-rule="nonzero" opacity="0.1"></path>
                <path d="M333.88392,253.670668 C333.217258,258.564059 332.327213,272.214048 332.327213,272.214048 C329.210309,276.815553 322.30635,274.329366 322.30635,274.329366 C322.30635,274.329366 321.566391,272.955783 320.452962,267.760202 C319.339533,262.564622 318.672871,244.244449 318.672871,244.244449 L316.072543,228.839708 C313.716541,222.922996 313.179023,215.897116 313.179023,215.897116 C312.131911,213.19459 309.615352,195.451322 309.615352,195.451322 C309.615352,195.451322 310.662464,211.367723 309.988822,219.767188 C309.31518,228.166652 313.398917,239.481548 313.398917,239.481548 C313.398917,239.481548 315.702563,250.071878 314.512346,253.358177 C313.322129,256.644476 317.482654,270.225785 317.482654,270.225785 C317.133617,274.16797 305.315211,272.560877 305.315211,272.560877 C305.315211,272.560877 299.755046,257.897871 298.781232,249.05886 C298.197657,243.735195 297.24253,238.457332 295.922616,233.262648 L294.959273,220.996545 L293.24899,213.768061 L291.210612,204.204484 C288.906965,197.19234 288.2054,185.472237 288.2054,185.472237 L286.421819,173.971907 C285.256034,168.285271 286.770856,161.609654 287.776084,158.117317 C288.212381,156.606375 288.561418,155.68264 288.561418,155.68264 C289.584097,156.396904 295.440944,157.231356 298.470589,157.91128 C300.128397,158.288935 301.833881,158.423169 303.531631,158.309619 C311.191251,157.711264 318.768662,156.344315 326.145761,154.230075 L326.910153,154 L327.06722,155.311772 L327.4372,158.446977 L328.09688,164.006557 C328.09688,164.006557 330.100355,193.648494 328.913628,197.659358 C327.726901,201.670222 329.730375,215.17255 329.730375,215.17255 C328.616946,218.373 332.103829,231.394574 332.103829,231.394574 C332.103829,231.394574 334.554071,248.770408 333.88392,253.670668 Z" id="Path" fill="#474463" fill-rule="nonzero"></path>
                <path d="M311.986268,73.9245645 C311.990594,76.3600465 311.346579,78.7538835 310.118754,80.8662181 C307.921678,81.2492293 305.583853,80.8255444 303.939479,79.3917946 C302.813477,78.4122351 302.085696,77.0733908 301.11761,75.9379152 C300.490962,75.2401221 299.81775,74.5844896 299.102479,73.9754067 C298.635453,73.516052 298.099305,73.1307497 297.513032,72.8331522 C296.915473,72.5351234 296.211702,72.5276114 295.607756,72.8128153 C294.831914,73.2398897 294.577877,74.1923334 294.128163,74.9515767 C293.789928,75.6033686 293.211124,76.1020466 292.511252,76.3446527 C291.792918,76.5715256 291.008746,76.3088593 290.578512,75.6972622 C290.101335,74.8871766 290.451494,73.6229008 289.651621,73.1280369 C289.440634,73.0251729 289.222695,72.9368358 288.999364,72.8636575 C287.969485,72.4026883 287.849332,71.0367281 287.760076,69.9181999 C287.715448,69.3691043 287.595296,68.7488296 287.128417,68.4539449 C286.661538,68.1590602 286.047044,68.3081973 285.490909,68.3183657 C285.326362,68.3247602 285.16162,68.3122481 285,68.2810814 C287.701898,62.2676014 294.297013,58.9408689 300.815527,60.3033549 C307.334041,61.6658409 311.997995,67.3459204 312,73.9245645 L311.986268,73.9245645 Z" id="Path" fill="#000000" fill-rule="nonzero" opacity="0.1"></path>
                <path d="M283.930849,55.0805458 C282.822224,55.8847977 282.122288,57.1217856 282.011818,58.4720245 C281.985526,58.6950296 282.0032,58.9209268 282.063871,59.1373548 C282.160734,59.3670478 282.276805,59.5884462 282.410893,59.7992732 C283.139639,61.2220565 282.025699,62.9075601 282.167978,64.494117 C282.36765,66.0442034 283.702079,67.2104457 285.291175,67.2236773 C285.85335,67.2236773 286.471049,67.0599037 286.94647,67.3601554 C287.42189,67.660407 287.539877,68.281382 287.58499,68.834118 C287.675216,69.9600616 287.789733,71.3350776 288.834269,71.7991029 C289.059361,71.8745172 289.279552,71.9633937 289.49361,72.065235 C290.305642,72.5633798 289.951679,73.8394492 290.43404,74.6514934 C290.868946,75.2671452 291.661636,75.5315529 292.387773,75.303176 C293.093888,75.0599571 293.67785,74.5590973 294.018776,73.9042763 C294.466435,73.1365874 294.733641,72.1983011 295.517911,71.7513356 C296.127523,71.4615987 296.839679,71.4679068 297.443883,71.7683953 C298.036641,72.0691935 298.578598,72.4581908 299.050594,72.9216346 C299.774472,73.5338618 300.455056,74.1938986 301.087613,74.8971539 C302.066215,76.0367453 302.801901,77.3844657 303.940133,78.3705194 C306.084728,80.2232085 309.367556,80.4176897 312.011863,79.3497492 C312.393516,79.2246177 312.737955,79.0090031 313.014756,78.7219503 C313.256155,78.3918429 313.412181,78.0089131 313.469355,77.6062425 C313.737864,76.3218103 313.815015,75.0058187 313.698389,73.6995593 C313.604693,72.6759741 313.39301,71.652389 313.465885,70.6288039 C313.538759,69.5301558 313.937834,68.4690393 313.993358,67.3703912 C314.090524,65.4255795 313.108452,63.5797143 311.911226,62.0409246 C311.189421,61.12311 310.37739,60.2735343 309.75275,59.2908926 C309.207926,58.437905 308.812321,57.4996186 308.229324,56.6739266 C306.862057,54.7461746 304.557832,53.6031712 302.205023,53.203973 C299.852215,52.8047748 297.433472,53.0504353 295.077193,53.4359857 C293.022823,53.7771807 290.954573,54.2616777 288.872441,54.3810959 C287.050576,54.5073381 285.582673,53.9034229 283.930849,55.0805458 Z" id="Path" fill="#472727" fill-rule="nonzero"></path>
                <path d="M301,93 L298.479438,99.5937951 L294.115848,111.640152 C294.115848,111.640152 294.077232,111.763528 294,111.982864 L294,112 L299.490471,94.0212843 C300.016496,93.7142246 300.520806,93.3730291 301,93 L301,93 Z" id="Path" fill="#000000" fill-rule="nonzero" opacity="0.1"></path>
                <path d="M328.990296,169.107367 C328.990296,169.107367 329.256399,177.013323 327.001712,179 L321,168.312696 L326.03439,166 L328.990296,169.107367 Z" id="Path" fill="#FFB9B9" fill-rule="nonzero"></path>
                <path d="M341,170.388137 C338.358251,173.451189 326.860091,174 326.860091,174 L315.479189,156.163641 C315.479189,156.163641 312.785709,154.304544 307.726381,145.931745 C302.667053,137.558947 302.832593,131.110417 303.115391,126.294601 C303.398189,121.478784 306.56415,107.638455 306.56415,107.638455 C307.057322,104.523953 314.151418,85 314.151418,85 C314.896349,86.4783597 316.28275,87.7131846 317.903666,88.7319151 C322.283589,91.4759702 328.398238,92.6010329 328.398238,92.6010329 C338.247891,94.0245115 336.430395,104.143215 336.430395,104.143215 C336.430395,104.143215 336.540756,143.475816 335.933774,148.181871 C335.326793,152.887925 341,170.388137 341,170.388137 Z" id="Path" fill="#000000" fill-rule="nonzero" opacity="0.1"></path>
                <polygon id="Path" fill="#CBCDDA" fill-rule="nonzero" points="329 169.922242 328.635154 173 324.230404 171.462929 321 166.808318 323.424703 165"></polygon>
                <path d="M328,158.38963 L325.924137,158.623041 L305.908848,160.82162 C302.694648,161.176412 299.450249,161.001303 296.283148,160.302093 L287,158.26163 C287.428189,156.605166 287.770741,155.592464 287.770741,155.592464 C288.774417,156.37552 294.522433,157.29034 297.495781,158.035749 C299.122783,158.449777 300.796576,158.596939 302.462779,158.472453 C309.980069,157.81647 317.416678,156.317866 324.656696,154 L325.561033,155.185878 L328,158.38963 Z" id="Path" fill="#000000" fill-rule="nonzero" opacity="0.1"></path>
                <g id="Group" opacity="0.1" transform="translate(287.000000, 154.000000)" fill="#000000" fill-rule="nonzero">
                    <path d="M0.557575758,1.80407932 C0.490321681,1.77117766 0.425150532,1.73424432 0.362424242,1.69348442 C0.362424242,1.69348442 0.362424242,1.71422096 0.341515152,1.74532578 L0.557575758,1.80407932 Z" id="Path"></path>
                    <path d="M43.8359091,77.9002833 C43.8359091,77.9002833 40.3510606,64.7947875 41.4662121,61.573711 C41.4662121,61.573711 39.4659091,47.9912748 40.6542424,43.9476487 C41.8425758,39.9040227 39.835303,10.0779603 39.835303,10.0779603 L39.1766667,4.48254958 L38.8072727,1.32713881 L38.6539394,0.0069121813 L37.8872727,0.238470255 L37.4133333,0.376713881 L37.4725758,0.888215297 L37.8419697,4.04016997 L38.5006061,9.63558074 C38.5006061,9.63558074 40.5009091,39.4720113 39.3195455,43.5052691 C38.1381818,47.5385269 40.1315152,61.1313314 40.1315152,61.1313314 C39.0198485,64.355864 42.5012121,77.4579037 42.5012121,77.4579037 C42.5012121,77.4579037 44.9406061,94.9526346 44.2819697,99.8741076 C43.6233333,104.795581 42.7242424,118.536997 42.7242424,118.536997 C40.4521212,121.92051 36.1622727,121.498867 34.0121212,121.025382 L34.0504545,121.108329 C34.0504545,121.108329 40.9434848,123.610538 44.0554545,118.979377 C44.0554545,118.979377 44.9440909,105.234504 45.6131818,100.316487 C46.2822727,95.3984703 43.8359091,77.9002833 43.8359091,77.9002833 Z" id="Path"></path>
                    <path d="M26.2757576,100.02272 C27.4606061,96.7152408 25.1640909,86.0566572 25.1640909,86.0566572 C25.1640909,86.0566572 21.090303,74.6515581 21.7559091,66.2152408 C22.034697,62.6934844 22.0172727,57.8618697 21.8987879,53.4277054 C20.9543939,47.7078754 20.0483333,41.3313881 20.0483333,41.3313881 C20.0483333,41.3313881 21.0937879,57.3503683 20.424697,65.8005099 C19.7556061,74.2506516 23.8293939,85.6453824 23.8293939,85.6453824 C23.8293939,85.6453824 26.1293939,96.3005099 24.9410606,99.6079887 C23.7527273,102.915467 27.899697,116.567025 27.899697,116.567025 C27.6034848,119.746629 19.9890909,119.331898 16.9677273,119.055411 L17.0827273,119.359547 C17.0827273,119.359547 28.865,120.976997 29.2343939,117.009405 C29.2413636,116.999037 25.0909091,103.330198 26.2757576,100.02272 Z" id="Path"></path>
                </g>
                <path d="M342,170.388137 C339.36187,173.451189 327.861004,174 327.861004,174 L316.480837,156.163641 C316.480837,156.163641 313.787531,154.304544 308.72508,145.931745 C303.66263,137.558947 303.835057,131.110417 304.114388,126.294601 C304.39372,121.478784 307.562924,107.638455 307.562924,107.638455 C308.056065,104.523953 315.149702,85 315.149702,85 C315.891137,86.4783597 317.277449,87.7131846 318.901709,88.7319151 C323.281349,91.4759702 329.395603,92.6010329 329.395603,92.6010329 C339.241172,94.0245115 337.423793,104.143215 337.423793,104.143215 C337.423793,104.143215 337.534146,143.475816 336.927204,148.181871 C336.320262,152.887925 342,170.388137 342,170.388137 Z" id="Path" fill="#4C4C78" fill-rule="nonzero"></path>
                <path d="M318.327892,94.8554697 L315.816231,95.7869424 L317.48834,96.9556442 L305,127 C305.290345,122.115873 308.498134,108.025168 308.498134,108.025168 C308.998368,104.857463 316.19403,85 316.19403,85 C316.946129,86.5036133 318.352379,87.7595315 320,88.7956641 L318.327892,94.8554697 Z" id="Path" fill="#000000" fill-rule="nonzero" opacity="0.1"></path>
                <polygon id="Path" fill="#000000" fill-rule="nonzero" opacity="0.1" points="321 148.539072 333.376664 145 335 150.577518 322.352215 154"></polygon>
                <path d="M328.145968,97.726387 C328.145968,97.726387 322.516737,103.073225 324.640847,114.98972 C326.764957,126.906215 330.161498,139.843439 330.161498,139.843439 L321,165.464418 C321,165.464418 327.385903,172.184787 330.524564,173 L339.669096,152.513493 C339.669096,152.513493 343.944462,145.41292 342.807757,134.270534 C341.671053,123.128149 337.558558,105.097556 337.558558,105.097556 C337.558558,105.097556 337.561952,94.1230088 328.145968,97.726387 Z" id="Path" fill="#000000" fill-rule="nonzero" opacity="0.1"></path>
                <path d="M328.154024,97.726387 C328.154024,97.726387 322.52574,103.073225 324.641432,114.98972 C326.757124,126.906215 330.154438,139.843439 330.154438,139.843439 L321,165.464418 C321,165.464418 327.380982,172.184787 330.517225,173 L339.671663,152.513493 C339.671663,152.513493 343.943734,145.41292 342.807905,134.270534 C341.672077,123.128149 337.562752,105.097556 337.562752,105.097556 C337.562752,105.097556 337.562752,94.1230088 328.154024,97.726387 Z" id="Path" fill="#4C4C78" fill-rule="nonzero"></path>
                <path d="M321.541609,165.045978 C321.541609,165.045978 329.574004,175.516341 328.967281,178.304605 C328.360559,181.092869 326.006171,179.601723 326.006171,179.601723 L322.842819,175.516341 L320,167.873767 C320,167.873767 320.278558,164.575279 321.541609,165.045978 Z" id="Path" fill="#000000" fill-rule="nonzero" opacity="0.1"></path>
                <path d="M320.541936,165.045978 C320.541936,165.045978 328.556952,175.516341 327.969184,178.304605 C327.381416,181.092869 325.007445,179.601723 325.007445,179.601723 L321.839605,175.516341 L319,167.873767 C319,167.873767 319.278617,164.575279 320.541936,165.045978 Z" id="Path" fill="#000000" fill-rule="nonzero" opacity="0.1"></path>
                <path d="M320.542523,165.045978 C320.542523,165.045978 328.56059,175.516341 327.96878,178.304605 C327.37697,181.092869 325.005914,179.601723 325.005914,179.601723 L321.840686,175.516341 L319,167.873767 C319,167.873767 319.274905,164.575279 320.542523,165.045978 Z" id="Path" fill="#474463" fill-rule="nonzero"></path>
            </g>
        </g>
    </g>
</svg>