<?xml version="1.0" encoding="utf-8"?>
<!-- Generator: Adobe Illustrator 24.0.1, SVG Export Plug-In . SVG Version: 6.00 Build 0)  -->
<svg version="1.1" id="Layer_1" xmlns="http://www.w3.org/2000/svg" xmlns:xlink="http://www.w3.org/1999/xlink" x="0px" y="0px"
	 viewBox="0 0 54 57" style="enable-background:new 0 0 54 57;" xml:space="preserve">
<style type="text/css">
	.st0{filter:url(#Adobe_OpacityMaskFilter);}
	.st1{fill-rule:evenodd;clip-rule:evenodd;fill:#FFFFFF;}
	.st2{mask:url(#mask-2_1_);fill-rule:evenodd;clip-rule:evenodd;fill:#EA1F64;}
	.st3{fill:#FFFFFF;}
	.st4{font-family:'Assistant-SemiBold';}
	.st5{font-size:16.1239px;}
	.st6{font-size:13.5781px;}
</style>
<title>Group 6</title>
<desc>Created with Sketch.</desc>
<g id="Page-1">
	<g id="Desktop" transform="translate(-133.000000, -15.000000)">
		<g id="Group-6" transform="translate(133.000000, 15.000000)">
			<g id="Group-3">
				<g id="Clip-2">
				</g>
				<defs>
					<filter id="Adobe_OpacityMaskFilter" filterUnits="userSpaceOnUse" x="0" y="0" width="54" height="57">
						<feColorMatrix  type="matrix" values="1 0 0 0 0  0 1 0 0 0  0 0 1 0 0  0 0 0 1 0"/>
					</filter>
				</defs>
				<mask maskUnits="userSpaceOnUse" x="0" y="0" width="54" height="57" id="mask-2_1_">
					<g class="st0">
						<path id="path-1_1_" class="st1" d="M54,17.8c0,2.5-1.6,4.8-4.2,5.4l-0.3,0.1c-3.1,0.8-6.4-0.4-8.5-2.9
							c-1.4-1.7-3.1-3.2-5.1-4.4c-9.6-5.8-22-2.6-27.9,7.1c-4.5,7.5-6.1,29.7,17.8,34c-4.1-0.4-8.2-1.7-12-4C4.9,47.7,0,38.2,0,28.6
							l0-0.1c0-5.1,1.4-10.3,4.3-15C9.6,4.8,18.9,0,28.4,0h0.1c4.7,0,9.4,1.2,13.7,3.6c4.9,2.8,8.7,6.8,11.2,11.5
							C53.8,15.9,54,16.8,54,17.8L54,17.8"/>
					</g>
				</mask>
				<path id="Fill-1" class="st2" d="M8,23c5.9-9.7,18.3-12.9,27.9-7.1c2,1.2,3.7,2.7,5.1,4.4c2.1,2.5,5.3,3.7,8.5,2.9l0.3-0.1
					c3.5-0.9,5.3-4.9,3.6-8.1c-2.5-4.7-6.2-8.7-11.2-11.5C29-3.8,12.2,0.6,4.3,13.5C-4.1,27,0.2,44.8,13.7,53c3.8,2.3,7.9,3.6,12,4
					C1.9,52.7,3.4,30.5,8,23"/>
			</g>
			<text transform="matrix(1 0 0 1 29.6277 38.1658)" class="st3 st4 st5">ידע</text>
			<text transform="matrix(1 0 0 1 19.3455 50.1248)" class="st3 st4 st6">זה כוח</text>
			<rect x="20.1" y="40.3" class="st3" width="30.2" height="0.5"/>
		</g>
	</g>
</g>
</svg>
